<?xml version="1.0" encoding="utf-8"?>
<!-- Generator: Adobe Illustrator 25.4.1, SVG Export Plug-In . SVG Version: 6.00 Build 0)  -->
<svg version="1.1" id="Layer_1" xmlns="http://www.w3.org/2000/svg" xmlns:xlink="http://www.w3.org/1999/xlink" x="0px" y="0px"
	 viewBox="0 0 300 397.04" style="enable-background:new 0 0 300 397.04;" xml:space="preserve">
<style type="text/css">
	.st0{fill:#E72629;}
	.st1{fill:#F4C939;}
</style>
<g id="T" transform="translate(-33.796,-64.797)">
	<path id="path35" class="st0" d="M163.45,457.88l35.48-199.52c33.82,0,44.48,3.71,46.02,18.84c0,0,22.68-8.46,34.12-25.64
		c-44.65-20.69-89.5-21.62-89.5-21.62l-26.18,31.88l0.06,0l-26.18-31.88c0,0-44.86,0.93-89.5,21.62
		C59.2,268.75,81.9,277.2,81.9,277.2c1.55-15.14,12.2-18.84,45.79-18.87L163.45,457.88"/>
	<path id="path37" class="st0" d="M163.43,220.74c36.09-0.28,77.4,5.58,119.69,24.01c5.65-10.17,7.11-14.67,7.11-14.67
		c-46.23-18.29-89.52-24.55-126.8-24.71c-37.28,0.16-80.57,6.42-126.79,24.71c0,0,2.06,5.54,7.1,14.67
		C86.02,226.33,127.34,220.47,163.43,220.74L163.43,220.74"/>
</g>
<path class="st1" d="M294.25,74.31c0,36.6-29.67,66.27-66.27,66.27c-36.6,0-66.27-29.67-66.27-66.27s29.67-66.27,66.27-66.27
	C264.58,8.04,294.25,37.71,294.25,74.31z"/>
</svg>
