<?xml version="1.0" encoding="utf-8"?>
<!-- Generator: Adobe Illustrator 25.4.1, SVG Export Plug-In . SVG Version: 6.00 Build 0)  -->
<svg version="1.1" id="Layer_1" xmlns="http://www.w3.org/2000/svg" xmlns:xlink="http://www.w3.org/1999/xlink" x="0px" y="0px"
	 viewBox="0 0 433 597" style="enable-background:new 0 0 433 597;" xml:space="preserve">
<style type="text/css">
	.st0{fill:#E72629;}
	.st1{fill:#F4C939;}
	.st2{fill:#F6871F;}
	.st3{enable-background:new    ;}
</style>
<g id="T" transform="translate(-33.796,-64.797)">
	<path id="path35" class="st0" d="M247.1,505.2l35.5-199.5c33.8,0,44.5,3.7,46,18.8c0,0,22.7-8.5,34.1-25.6
		c-44.6-20.7-89.5-21.6-89.5-21.6L247,309.1h0.1l-26.2-31.9c0,0-44.9,0.9-89.5,21.6c11.4,17.2,34.1,25.6,34.1,25.6
		c1.6-15.1,12.2-18.8,45.8-18.9L247.1,505.2"/>
	<path id="path37" class="st0" d="M247,268c36.1-0.3,77.4,5.6,119.7,24c5.6-10.2,7.1-14.7,7.1-14.7c-46.2-18.3-89.5-24.5-126.8-24.7
		c-37.3,0.2-80.6,6.4-126.8,24.7c0,0,2.1,5.5,7.1,14.7C169.6,273.6,211,267.8,247,268L247,268"/>
</g>
<path class="st1" d="M381.8,98c0,26.1-21.1,47.2-47.2,47.2s-47.2-21.1-47.2-47.2s21.1-47.2,47.2-47.2
	C360.6,50.8,381.8,71.9,381.8,98z"/>
<path class="st2" d="M323.5,35.9l11.8-30.5l10.2,30.5H323.5z"/>
<path class="st2" d="M323.5,157.4l11.8,30.5l10.2-30.5L323.5,157.4L323.5,157.4z"/>
<path class="st2" d="M273.6,109l-30.5-11.9l30.5-10.2V109z"/>
<path class="st2" d="M395.1,109l30.5-11.9l-30.5-10.2V109z"/>
<path class="st2" d="M283.7,61.3l-13.2-29.9l28.7,14.4L283.7,61.3z"/>
<path class="st2" d="M369.7,147.3l29.9,13.2l-14.4-28.7L369.7,147.3z"/>
<path class="st2" d="M300.1,148.4l-29.9,13.2l14.4-28.7L300.1,148.4z"/>
<path class="st2" d="M386.1,62.4l13.1-29.9l-28.7,14.4L386.1,62.4z"/>
<g class="st3">
	<path d="M105.2,507.8v-30H94c-2.1,0-3.9-0.7-5.3-2.2c-1.4-1.5-2.2-3.3-2.2-5.3h45c0,2.1-0.7,3.9-2.2,5.3c-1.5,1.4-3.2,2.2-5.3,2.2
		h-11.2v30H105.2z"/>
	<path d="M146.5,477.8c-2.1,0-3.9-0.7-5.3-2.2c-1.4-1.5-2.2-3.3-2.2-5.3h45c0,2.1-0.7,3.9-2.2,5.3c-1.5,1.4-3.2,2.2-5.3,2.2H146.5z
		 M146.5,492.8c-2.1,0-3.9-0.7-5.3-2.2c-1.4-1.5-2.2-3.3-2.2-5.3h45c0,2.1-0.7,3.9-2.2,5.3c-1.5,1.4-3.2,2.2-5.3,2.2H146.5z
		 M146.5,507.8c-2.1,0-3.9-0.7-5.3-2.2c-1.4-1.5-2.2-3.3-2.2-5.3h45c0,2.1-0.7,3.9-2.2,5.3c-1.5,1.4-3.2,2.2-5.3,2.2H146.5z"/>
	<path d="M191.5,507.8c0-2.1,0.7-3.8,2.2-5.3s3.3-2.2,5.3-2.2h30v-7.5h-37.5v-22.5h45c0,2.1-0.7,3.9-2.2,5.3
		c-1.5,1.4-3.2,2.2-5.3,2.2h-30v7.5h37.5v22.5H191.5z"/>
	<path d="M244,507.8v-37.5h7.5v30H289c0,2.1-0.7,3.9-2.2,5.3c-1.5,1.4-3.2,2.2-5.3,2.2H244z"/>
	<path d="M304,477.8c-2.1,0-3.9-0.7-5.3-2.2s-2.2-3.3-2.2-5.3h45c0,2.1-0.7,3.9-2.2,5.3c-1.5,1.4-3.2,2.2-5.3,2.2H304z M296.5,507.8
		v-22.5h45v22.5H334v-15h-30v15H296.5z"/>
</g>
<g class="st3">
	<path d="M19,549.8c-2.1,0-3.9-0.7-5.3-2.2s-2.2-3.3-2.2-5.3h45c0,2.1-0.7,3.9-2.2,5.3c-1.5,1.4-3.2,2.2-5.3,2.2H19z M11.5,579.8
		v-22.5H19v15h30v-15h7.5v22.5H11.5z"/>
	<path d="M64,579.8v-22.5h33.8c1,0,1.9-0.4,2.6-1.1c0.7-0.7,1.1-1.6,1.1-2.7v-3.8H64v-7.5h45v15c0,2.1-0.7,3.9-2.2,5.3
		c-1.5,1.4-3.2,2.2-5.3,2.2h-30v15L64,579.8L64,579.8z"/>
	<path d="M135.2,579.8v-30H124c-2.1,0-3.9-0.7-5.3-2.2c-1.4-1.5-2.2-3.3-2.2-5.3h45c0,2.1-0.7,3.9-2.2,5.3c-1.5,1.4-3.2,2.2-5.3,2.2
		h-11.2v30H135.2z"/>
	<path d="M169,579.8v-37.5h7.5v37.5H169z"/>
	<path d="M191.5,579.8v-30l-7.5-7.5h11.2l18.8,18.8l18.7-18.8H244l-7.5,7.5v30H229v-22.5l-11.2,11.2v11.2h-7.5v-11.2L199,557.3v22.5
		H191.5z"/>
	<path d="M251.5,579.8v-37.5h7.5v37.5H251.5z"/>
	<path d="M266.5,579.8l30-30H274c-2.1,0-3.9-0.7-5.3-2.2s-2.2-3.3-2.2-5.3h45v3.8l-26.2,26.2H304c2.1,0,3.8,0.7,5.3,2.2
		s2.2,3.2,2.2,5.3H266.5z"/>
	<path d="M326.5,549.8c-2.1,0-3.9-0.7-5.3-2.2s-2.2-3.3-2.2-5.3h45c0,2.1-0.7,3.9-2.2,5.3c-1.5,1.4-3.2,2.2-5.3,2.2H326.5z
		 M326.5,564.8c-2.1,0-3.9-0.7-5.3-2.2s-2.2-3.3-2.2-5.3h45c0,2.1-0.7,3.9-2.2,5.3c-1.5,1.4-3.2,2.2-5.3,2.2H326.5z M326.5,579.8
		c-2.1,0-3.9-0.7-5.3-2.2s-2.2-3.3-2.2-5.3h45c0,2.1-0.7,3.9-2.2,5.3c-1.5,1.4-3.2,2.2-5.3,2.2H326.5z"/>
	<path d="M371.5,579.8v-22.5h33.8c1,0,1.9-0.4,2.6-1.1c0.7-0.7,1.1-1.6,1.1-2.7v-3.8h-30c-2.1,0-3.9-0.7-5.3-2.2s-2.2-3.3-2.2-5.3
		h45v15c0,2.1-0.7,3.9-2.2,5.3c-1.5,1.4-3.2,2.2-5.3,2.2h-7.5l15,15h-11.2l-15-15H379v15L371.5,579.8L371.5,579.8z"/>
</g>
</svg>
