<?xml version="1.0" encoding="utf-8"?>
<!-- Generator: Adobe Illustrator 25.4.1, SVG Export Plug-In . SVG Version: 6.00 Build 0)  -->
<svg version="1.1" id="Layer_1" xmlns="http://www.w3.org/2000/svg" xmlns:xlink="http://www.w3.org/1999/xlink" x="0px" y="0px"
	 viewBox="0 0 351.11 448.15" style="enable-background:new 0 0 351.11 448.15;" xml:space="preserve">
<style type="text/css">
	.st0{fill:#E72629;}
	.st1{fill:#F4C939;}
	.st2{fill:#F6871F;}
</style>
<g id="T" transform="translate(-33.796,-64.797)">
	<path id="path35" class="st0" d="M166.21,504.89l35.48-199.52c33.82,0,44.48,3.71,46.02,18.84c0,0,22.68-8.46,34.13-25.64
		c-44.65-20.69-89.51-21.62-89.51-21.62l-26.18,31.88l0.06,0l-26.18-31.88c0,0-44.86,0.93-89.5,21.62
		c11.43,17.18,34.12,25.64,34.12,25.64c1.55-15.14,12.2-18.84,45.79-18.87L166.21,504.89"/>
	<path id="path37" class="st0" d="M166.19,267.75c36.09-0.28,77.4,5.58,119.69,24.01c5.65-10.17,7.11-14.67,7.11-14.67
		c-46.23-18.29-89.52-24.55-126.8-24.71c-37.28,0.16-80.57,6.42-126.79,24.71c0,0,2.06,5.54,7.1,14.67
		C88.78,273.33,130.1,267.47,166.19,267.75L166.19,267.75"/>
</g>
<path class="st1" d="M300.91,97.71c0,26.07-21.13,47.2-47.2,47.2c-26.07,0-47.2-21.13-47.2-47.2s21.13-47.2,47.2-47.2
	C279.78,50.5,300.91,71.64,300.91,97.71z"/>
<path class="st2" d="M242.7,35.57l11.84-30.48l10.16,30.48H242.7z"/>
<path class="st2" d="M242.7,157.12l11.84,30.47l10.16-30.47H242.7z"/>
<path class="st2" d="M192.74,108.7l-30.47-11.85l30.47-10.16V108.7z"/>
<path class="st2" d="M314.3,108.7l30.47-11.85L314.3,86.7V108.7z"/>
<path class="st2" d="M202.89,61.02L189.72,31.1l28.73,14.36L202.89,61.02z"/>
<path class="st2" d="M288.84,146.98l29.94,13.16L304.4,131.4L288.84,146.98z"/>
<path class="st2" d="M219.28,148.06l-29.93,13.16l14.37-28.73L219.28,148.06z"/>
<path class="st2" d="M305.24,62.11l13.15-29.93l-28.72,14.38L305.24,62.11z"/>
</svg>
